<?xml version="1.0" standalone="no"?>
<!DOCTYPE svg PUBLIC "-//W3C//DTD SVG 20010904//EN"
 "http://www.w3.org/TR/2001/REC-SVG-20010904/DTD/svg10.dtd">
<svg version="1.0" xmlns="http://www.w3.org/2000/svg"
 width="2066.000000pt" height="585.000000pt" viewBox="0 0 2066.000000 585.000000"
 preserveAspectRatio="xMidYMid meet">

<g transform="translate(0.000000,585.000000) scale(0.100000,-0.100000)"
fill="#000000" stroke="none">
<path d="M0 2925 l0 -2925 10330 0 10330 0 0 2925 0 2925 -10330 0 -10330 0 0
-2925z m20480 -1 l0 -2707 -22 -18 c-20 -18 -54 -19 -792 -19 -20929 0 -19438
-2 -19458 20 -17 18 -18 119 -18 2725 l0 2705 10145 0 10145 0 0 -2706z"/>
<path d="M270 2915 l0 -2635 10063 0 c5535 0 10066 2 10068 4 2 2 3 1188 1
2636 l-2 2631 -22 -15 c-20 -14 -999 -16 -10044 -16 -8892 0 -10023 2 -10034
15 -7 8 -16 15 -21 15 -5 0 -9 -1130 -9 -2635z m1940 1496 c6 -12 10 -117 10
-270 l0 -251 333 -1 c182 -1 350 -2 372 -3 l40 -1 3 150 c3 195 -8 185 196
185 173 0 184 -4 189 -65 l4 -40 116 -5 c148 -6 152 -9 153 -124 0 -45 4 -88
8 -94 4 -7 43 -10 115 -9 117 2 141 -6 141 -48 0 -12 -9 -33 -21 -46 -18 -21
-30 -24 -111 -28 -57 -2 -94 1 -101 8 -22 22 -27 9 -27 -80 0 -87 -1 -92 -29
-120 -21 -21 -40 -29 -68 -31 -21 -1 -54 -2 -73 -3 -19 -1 -47 4 -62 12 -37
18 -38 17 -38 -18 0 -17 -5 -40 -12 -52 -26 -50 -33 -52 -184 -52 l-142 0 -26
28 c-25 27 -26 31 -26 172 0 149 -6 171 -39 141 -15 -14 -59 -16 -348 -16
-281 0 -332 2 -343 15 -7 8 -16 12 -21 9 -5 -3 -9 -501 -9 -1165 l0 -1159 113
0 c100 0 116 -2 135 -20 27 -26 27 -29 -1 -71 l-23 -34 -281 -3 -282 -2 -25
33 c-32 41 -32 51 -4 77 19 18 35 20 135 20 l113 0 0 1158 c0 637 -3 1162 -6
1165 -4 3 -16 0 -28 -8 -31 -22 -538 -22 -560 0 -8 8 -17 15 -20 15 -3 0 -6
-66 -6 -148 0 -144 -1 -148 -25 -174 -34 -37 -53 -40 -194 -36 -121 3 -121 3
-146 33 -16 20 -24 43 -25 68 0 42 1 41 -33 24 -13 -7 -38 -12 -53 -11 -16 1
-52 2 -79 3 -39 1 -56 7 -78 26 -26 25 -27 30 -27 120 0 52 -2 95 -5 95 -4 0
-20 -7 -37 -16 -23 -12 -46 -14 -96 -10 -74 7 -108 25 -123 64 -9 23 -7 30 15
49 24 20 35 22 134 20 l107 -2 3 80 c1 44 4 89 7 101 7 33 48 44 160 44 l105
0 0 35 c0 22 8 43 20 55 18 18 33 20 173 20 208 0 197 11 197 -181 l0 -149
313 2 312 3 3 254 c1 167 6 259 13 268 18 21 86 17 99 -6z m3503 -27 c78 -40
97 -81 97 -209 l0 -92 58 -18 c130 -41 274 -114 310 -158 26 -31 31 -87 38
-425 l7 -347 -28 25 c-15 14 -42 48 -60 75 -53 82 -158 180 -205 192 -14 3
-29 9 -35 13 -5 4 -53 24 -105 43 -116 43 -217 59 -369 59 -97 0 -129 -5 -196
-26 -44 -15 -89 -31 -100 -36 -65 -31 -135 -58 -135 -53 0 3 -9 -4 -20 -17
-11 -13 -20 -20 -20 -15 0 12 -73 -54 -123 -113 -52 -62 -115 -184 -141 -274
-21 -73 -21 -231 0 -317 39 -165 154 -331 297 -431 90 -64 246 -124 377 -146
70 -12 259 -6 325 11 219 54 403 199 502 392 l38 76 5 -134 c4 -100 8 -133 18
-131 9 1 12 -47 12 -217 l0 -219 -30 -30 c-16 -16 -31 -28 -33 -26 -2 2 -17
-11 -34 -28 -39 -42 -73 -70 -73 -60 0 4 -4 2 -8 -4 -7 -11 -66 -45 -77 -44
-3 0 -14 -9 -25 -20 -11 -11 -31 -22 -45 -26 -14 -3 -25 -10 -25 -14 0 -9 -34
-23 -62 -25 -10 -1 -21 -4 -24 -7 -3 -4 -9 -53 -13 -110 -12 -167 -54 -219
-206 -255 -98 -24 -200 -25 -296 -3 -113 25 -135 34 -165 67 -47 51 -61 92
-68 198 -3 55 -6 102 -6 104 0 2 -12 1 -26 -2 -32 -6 -80 7 -153 41 -32 14
-78 26 -106 28 -47 2 -54 -1 -100 -44 -28 -25 -49 -49 -48 -53 2 -5 -5 -5 -14
-2 -11 4 -14 2 -9 -5 10 -16 -69 -35 -113 -27 -41 8 -91 32 -91 44 0 5 -11 12
-25 15 -14 4 -23 10 -21 15 3 5 -3 16 -14 26 -11 10 -20 16 -20 13 0 -9 -113
105 -156 159 -60 73 -82 120 -82 173 0 59 8 72 91 157 l71 73 -27 51 c-15 28
-36 72 -47 97 -47 119 -50 124 -65 112 -10 -8 -44 -11 -102 -8 -119 5 -151 21
-192 100 l-31 61 0 210 c0 197 1 213 22 254 37 75 64 87 202 93 l119 5 17 50
c10 28 37 90 60 139 l43 90 -46 39 c-26 21 -62 60 -81 86 -29 40 -35 56 -35
97 1 28 10 68 22 94 29 61 185 216 281 279 70 45 84 51 133 51 66 0 97 -15
185 -91 l69 -59 37 16 c20 9 73 30 117 46 44 16 95 36 113 44 l32 14 0 98 c0
111 14 146 79 189 33 22 41 23 278 23 205 0 249 -3 276 -16z m9594 -119 c80
-40 92 -159 24 -229 l-31 -32 0 -999 c0 -550 0 -1061 0 -1136 l0 -135 34 -37
c42 -46 50 -85 31 -151 -19 -62 -30 -78 -72 -99 -55 -29 -103 -22 -146 19 -72
71 -75 163 -7 241 l30 33 -3 1135 -2 1135 -27 23 c-39 31 -57 91 -43 143 11
43 41 87 65 97 30 11 118 7 147 -8z m625 -16 c23 -26 23 -26 278 -38 263 -12
332 -21 459 -61 189 -58 373 -196 497 -372 75 -106 166 -310 188 -423 3 -16
13 -61 21 -100 48 -219 41 -617 -15 -825 -50 -188 -123 -356 -208 -481 -50
-75 -219 -249 -241 -249 -7 0 -9 -5 -6 -10 3 -6 -1 -10 -9 -10 -9 0 -16 -4
-16 -10 0 -5 -9 -10 -20 -10 -11 0 -20 -4 -20 -10 0 -5 -7 -10 -15 -10 -8 0
-15 -4 -15 -10 0 -5 -8 -10 -17 -10 -10 0 -32 -8 -48 -18 -102 -63 -332 -101
-617 -103 -177 -1 -179 -1 -236 -56 -7 -7 -36 -13 -63 -13 -42 0 -54 5 -84 33
-92 87 -64 247 48 272 48 11 105 -4 138 -38 40 -39 85 -43 324 -28 336 21 515
86 687 249 134 127 260 382 299 602 39 228 36 524 -7 745 -16 77 -32 142 -36
143 -4 2 -8 10 -8 18 0 8 -4 22 -8 32 -5 9 -24 49 -42 87 -19 39 -44 84 -57
102 -13 17 -23 35 -23 38 0 20 -142 161 -200 200 -37 25 -71 45 -74 45 -4 0
-48 20 -99 44 -50 23 -108 48 -127 54 -49 15 -569 26 -605 12 -15 -6 -35 -20
-44 -32 -13 -15 -32 -22 -73 -26 -52 -4 -58 -2 -90 29 -39 38 -57 77 -60 129
-2 40 28 110 47 110 7 0 19 7 26 16 10 13 28 15 81 12 57 -3 70 -8 90 -29z
m2977 -10 c138 -17 193 -30 326 -77 92 -33 135 -56 223 -121 122 -90 185 -175
284 -383 4 -10 8 -23 8 -30 0 -41 23 -88 53 -108 42 -29 62 -72 60 -131 -4
-152 -165 -219 -249 -105 -54 72 -57 161 -7 210 32 32 27 58 -33 183 -35 74
-60 108 -117 165 -68 69 -88 84 -147 108 -14 5 -32 14 -40 19 -24 15 -87 41
-99 41 -6 0 -30 7 -53 14 -24 8 -54 17 -68 20 -14 3 -52 10 -85 17 -86 18
-361 16 -460 -4 -81 -16 -173 -39 -210 -52 -73 -27 -176 -84 -213 -119 -24
-22 -48 -43 -53 -44 -11 -4 -78 -104 -96 -142 -52 -109 -67 -265 -38 -377 47
-179 199 -334 398 -408 40 -15 81 -31 92 -36 18 -7 113 -34 210 -60 22 -6 54
-14 70 -19 33 -9 68 -17 230 -56 211 -50 369 -111 464 -179 78 -56 125 -124
160 -234 18 -56 13 -171 -10 -242 -30 -92 -60 -137 -139 -213 -41 -39 -70 -74
-70 -86 0 -27 -44 -96 -69 -110 -11 -6 -41 -13 -66 -17 -45 -6 -47 -5 -94 44
-34 36 -50 61 -54 89 -19 113 88 212 190 175 38 -14 46 -11 100 47 56 60 77
117 78 207 0 86 -19 138 -67 182 -23 21 -160 90 -195 98 -10 2 -56 15 -103 30
-47 14 -157 43 -245 65 -266 66 -335 86 -447 124 -140 49 -244 105 -305 164
-7 7 -13 11 -13 8 0 -12 -104 100 -139 149 -122 171 -163 414 -103 610 18 58
79 195 91 205 3 3 25 30 49 61 46 61 119 126 169 152 17 9 37 23 45 30 19 20
152 72 243 97 168 46 375 60 544 39z m-11379 -17 c94 -46 108 -179 26 -249
l-26 -23 0 -1143 0 -1144 26 -24 c50 -45 70 -136 41 -185 -53 -92 -130 -123
-198 -79 -35 23 -70 84 -75 131 -5 45 -2 54 35 109 l40 60 1 1136 0 1135 -34
38 c-79 85 -47 221 57 244 59 14 68 13 107 -6z m661 4 c19 -8 45 -26 58 -40
24 -26 27 -26 166 -26 338 0 559 -67 710 -215 130 -127 199 -269 220 -451 6
-60 -10 -220 -26 -261 -6 -15 -16 -39 -22 -53 -18 -45 -60 -123 -76 -143 -41
-49 -88 -95 -108 -106 -13 -6 -23 -16 -23 -21 0 -5 32 -29 70 -54 203 -132
310 -336 310 -592 0 -204 -82 -425 -206 -556 -87 -91 -142 -135 -214 -170
-166 -81 -321 -106 -678 -109 l-242 -2 -28 -28 c-83 -85 -197 -41 -232 89 -14
54 -2 93 42 139 57 59 144 57 203 -4 l35 -36 261 7 c143 3 284 11 312 16 94
18 152 31 172 40 11 4 43 16 70 25 154 55 299 228 351 420 24 89 22 283 -5
353 -27 72 -66 137 -114 190 -44 46 -163 122 -194 122 -11 0 -23 4 -28 9 -6 4
-49 20 -96 35 -48 14 -89 33 -93 41 -3 8 -12 15 -20 15 -38 0 -20 22 41 52
220 105 322 203 380 366 13 35 17 79 17 167 0 109 -3 126 -28 180 -56 124
-148 237 -203 251 -13 4 -23 9 -23 13 0 4 -24 15 -52 25 -29 10 -62 22 -73 27
-23 11 -96 27 -175 39 -30 5 -132 9 -226 9 -170 1 -171 1 -194 -24 -28 -29
-88 -48 -125 -39 -31 8 -78 53 -99 96 -62 123 60 256 185 204z m5139 -15 c43
-30 70 -80 70 -128 0 -51 -12 -79 -49 -110 l-26 -23 0 -1182 0 -1183 645 -3
646 -2 37 34 c51 47 102 55 160 26 57 -29 77 -63 77 -135 0 -121 -85 -190
-189 -154 -17 6 -31 14 -31 18 0 4 -13 14 -29 24 -27 16 -85 17 -710 17 -597
0 -684 2 -713 16 l-33 15 3 1251 2 1251 -33 31 c-18 17 -39 50 -46 73 -13 38
-12 46 7 87 12 25 32 54 44 66 44 41 118 45 168 11z m369 -29 c50 -60 48 -147
-3 -201 l-26 -27 0 -411 c0 -362 2 -412 16 -417 8 -3 24 -27 36 -53 18 -41 19
-52 9 -97 -18 -76 -78 -136 -136 -136 -64 0 -138 72 -148 145 -8 49 20 116 57
140 l26 17 0 404 c0 393 -1 404 -20 414 -51 27 -76 109 -54 174 36 105 174
132 243 48z m-1263 26 c43 -33 52 -49 60 -95 8 -56 0 -85 -36 -127 l-30 -34 0
-1141 0 -1142 30 -38 c53 -66 49 -153 -10 -219 -80 -91 -208 -38 -233 96 -10
49 2 87 39 127 l34 38 0 1138 0 1139 -33 34 c-62 61 -57 160 11 216 47 39 123
43 168 8z m360 -10 c64 -60 65 -161 1 -221 l-32 -30 0 -1137 0 -1138 38 -37
c37 -36 43 -55 38 -124 -7 -94 -105 -170 -180 -138 -68 29 -120 134 -98 199 7
19 25 49 40 67 l27 33 0 1138 0 1139 -30 34 c-54 62 -57 127 -7 200 24 36 48
46 115 46 46 1 57 -3 88 -31z m-2903 -39 c41 -21 67 -52 78 -92 14 -53 3 -92
-38 -138 l-35 -38 4 -763 c3 -548 8 -780 17 -823 45 -221 61 -275 84 -275 7 0
28 -13 46 -28 70 -58 70 -161 0 -234 -31 -33 -42 -38 -79 -38 -110 0 -180 140
-123 246 9 15 8 32 -6 75 -19 58 -43 175 -61 296 -6 44 -10 358 -10 812 l0
740 -23 18 c-76 60 -63 192 23 235 40 21 91 23 123 7z m337 -4 c34 -18 65 -60
72 -98 9 -50 -11 -115 -43 -138 l-29 -20 0 -713 c0 -764 5 -871 51 -1009 39
-120 164 -226 309 -263 l62 -16 32 30 c58 55 105 66 164 36 94 -47 107 -166
27 -248 -56 -58 -102 -60 -170 -6 -21 16 -48 30 -61 30 -58 0 -234 61 -234 82
0 4 -4 8 -10 8 -13 0 -54 33 -121 100 -64 64 -127 182 -144 270 -4 19 -12 53
-17 75 -7 25 -13 346 -17 832 l-6 792 -26 28 c-68 74 -56 169 28 225 34 22 94
23 133 3z m1627 -11 c18 -14 40 -38 48 -54 30 -58 10 -151 -35 -163 -25 -6
-23 58 -21 -742 2 -530 -1 -679 -14 -805 -30 -297 -84 -456 -206 -604 -87
-106 -267 -246 -314 -246 -8 0 -15 -4 -15 -9 0 -9 -153 -54 -250 -72 -103 -20
-393 -15 -530 8 -105 19 -118 19 -156 5 -60 -22 -105 -10 -148 40 -64 74 -60
167 7 222 73 59 163 37 212 -50 32 -58 77 -66 365 -68 196 -1 247 2 305 17
173 45 280 102 385 207 74 74 110 129 142 215 74 200 78 260 78 1119 0 721 0
739 -19 753 -47 32 -65 118 -36 172 41 81 135 106 202 55z m6940 -134 c7 0 31
-17 54 -37 26 -24 55 -39 82 -44 72 -12 152 -37 213 -66 111 -52 204 -152 250
-266 12 -31 29 -54 47 -63 69 -36 106 -135 75 -195 -40 -75 -102 -126 -140
-115 -7 3 -25 7 -39 10 -34 7 -62 33 -88 81 -29 54 -27 108 5 162 l26 44 -34
56 c-36 60 -102 123 -128 123 -9 0 -20 4 -25 8 -18 16 -119 42 -172 45 -45 2
-58 -1 -85 -24 -55 -48 -126 -46 -173 3 -44 46 -55 73 -55 129 0 49 4 60 36
97 36 42 82 64 119 56 11 -2 26 -4 32 -4z m-2645 -29 c37 -14 78 -65 85 -104
9 -56 -4 -100 -43 -145 -53 -63 -122 -69 -178 -17 -15 14 -32 23 -37 20 -5 -4
-9 -2 -9 3 0 6 -58 10 -142 11 -82 0 -146 5 -152 11 -36 36 -36 36 -36 -863
l0 -874 21 -19 c89 -80 45 -250 -73 -279 -67 -17 -154 63 -158 145 -4 67 0 80
35 119 l35 38 0 942 0 941 198 2 c108 0 210 0 226 -1 21 -2 38 7 65 32 56 54
98 63 163 38z m454 -22 c35 -33 57 -84 50 -113 -5 -21 2 -31 51 -69 78 -60
143 -131 198 -216 25 -38 45 -72 45 -75 0 -4 9 -25 19 -49 56 -123 82 -269 88
-489 9 -302 -28 -516 -125 -717 -57 -119 -160 -249 -222 -281 -22 -11 -50 -41
-74 -79 -32 -48 -49 -64 -83 -77 -65 -25 -109 -4 -164 81 -64 100 28 238 146
221 24 -4 47 -11 50 -17 31 -49 170 93 238 243 37 81 52 135 83 298 18 100 22
486 5 519 -6 11 -11 32 -11 47 0 28 -3 39 -41 154 -38 113 -161 278 -237 319
-13 7 -48 15 -80 17 -72 7 -98 20 -135 66 -43 53 -49 130 -16 181 33 50 72 69
137 64 38 -3 59 -10 78 -28z m-5049 -94 c28 -32 33 -46 33 -87 0 -54 -19 -99
-51 -122 -21 -14 -21 -17 -20 -456 l1 -442 35 -41 c29 -34 35 -48 35 -88 0
-62 -15 -96 -59 -136 -29 -27 -44 -33 -80 -33 -37 0 -49 6 -81 38 -71 70 -75
165 -10 227 l30 29 0 438 0 439 -34 34 c-59 58 -58 152 2 207 37 34 48 38 111
34 49 -3 58 -7 88 -41z m-2895 -29 c88 -20 130 -38 188 -81 60 -44 113 -121
140 -205 19 -56 21 -81 17 -180 -5 -148 -28 -202 -131 -317 -58 -65 -175 -115
-306 -129 -36 -4 -70 -7 -76 -8 -6 -1 -28 -16 -50 -34 -74 -61 -160 -34 -209
65 -23 48 -24 56 -14 99 14 55 63 108 108 117 49 10 88 -3 134 -44 l44 -38 81
13 c102 16 182 55 225 109 49 61 59 96 59 195 0 74 -4 96 -25 137 -38 76 -78
108 -150 123 -124 25 -227 32 -477 32 -145 0 -271 5 -293 11 -22 6 -42 7 -46
4 -3 -4 -7 -94 -9 -200 l-2 -193 35 -42 c40 -48 50 -77 42 -126 -8 -45 -55
-120 -85 -133 -38 -18 -93 -13 -128 11 -93 64 -99 203 -12 266 17 12 18 36 18
294 l0 281 428 -6 c332 -5 442 -9 494 -21z m972 -119 c0 -26 -6 -53 -12 -59
-9 -9 -12 6 -12 68 1 65 3 75 12 59 7 -11 12 -41 12 -68z m8602 -193 c47 -22
74 -70 74 -131 0 -27 -5 -54 -11 -60 -17 -17 -3 -47 28 -60 148 -65 233 -91
498 -153 72 -17 146 -35 165 -40 19 -6 82 -23 140 -39 101 -28 172 -51 215
-70 241 -104 402 -256 467 -439 23 -65 45 -149 46 -174 7 -190 1 -243 -45
-378 -24 -69 -96 -204 -125 -234 -7 -7 -34 -35 -59 -62 -25 -27 -63 -63 -84
-79 -21 -17 -44 -36 -51 -42 -7 -7 -17 -13 -23 -13 -6 0 -11 -4 -11 -9 0 -10
-125 -72 -195 -96 -27 -9 -59 -21 -70 -25 -100 -42 -438 -64 -589 -40 -229 37
-213 34 -296 62 -259 89 -479 287 -583 524 -15 34 -27 68 -27 76 0 8 -4 18 -8
23 -5 6 -14 37 -21 70 -18 84 -19 85 -38 92 -41 14 -53 44 -53 136 l0 87 47
30 c60 38 105 39 161 3 45 -29 72 -80 72 -136 0 -35 -33 -97 -51 -97 -15 0 -5
-86 16 -150 75 -219 240 -387 466 -473 60 -23 88 -31 184 -55 154 -39 484 -40
625 -3 214 56 334 123 452 250 202 218 230 557 63 775 -54 71 -165 163 -179
149 -3 -4 -6 -1 -6 5 0 7 -9 12 -20 12 -11 0 -20 5 -20 10 0 6 -8 10 -18 10
-10 0 -22 4 -27 9 -23 22 -242 88 -524 157 -167 41 -320 82 -339 90 -19 7 -41
14 -49 14 -35 0 -165 74 -219 125 -34 32 -75 59 -97 65 -75 21 -123 157 -80
227 48 80 113 98 199 57z m-12686 -425 c60 -27 88 -54 116 -114 41 -86 25
-202 -36 -261 -16 -16 -30 -33 -30 -37 -1 -27 -79 -67 -132 -67 -47 0 -101 17
-127 39 -11 10 -21 21 -21 24 0 3 -11 18 -24 32 -60 64 -82 171 -51 251 24 63
61 103 120 130 62 29 125 30 185 3z m3176 -347 c45 -11 107 -32 139 -47 49
-24 140 -102 170 -146 55 -81 85 -186 85 -301 0 -70 4 -94 20 -120 50 -82 -2
-211 -95 -237 -44 -12 -73 -5 -108 28 -91 83 -87 206 8 262 35 21 35 21 35 95
0 41 -4 82 -9 92 -5 9 -16 33 -25 52 -21 49 -57 85 -116 114 -27 14 -50 23
-50 20 0 -2 -9 0 -20 6 -48 26 -237 40 -533 40 -194 0 -306 4 -319 11 -11 6
-23 8 -26 4 -9 -9 -11 -714 -2 -720 4 -2 130 -5 280 -5 l273 -2 26 24 c60 57
132 65 188 22 81 -61 84 -160 9 -249 -23 -26 -31 -29 -85 -30 -54 0 -63 3 -93
33 l-34 32 -329 0 c-254 1 -335 4 -354 14 l-24 13 2 234 c0 129 1 359 1 512
l0 279 453 -5 c405 -5 460 -7 533 -25z m9382 -256 c90 -47 116 -154 56 -226
-26 -30 -26 -31 -9 -73 23 -58 53 -105 99 -155 56 -61 86 -75 149 -67 64 7
111 -14 145 -65 20 -29 23 -45 20 -95 -6 -102 -71 -164 -159 -152 -63 8 -114
68 -133 157 -3 15 -19 32 -39 43 -73 40 -168 160 -208 266 -17 45 -35 73 -62
94 -92 75 -92 199 1 258 51 32 98 37 140 15z m-4445 -46 c18 -11 43 -38 56
-61 30 -53 23 -115 -19 -163 -29 -32 -29 -34 -30 -167 -1 -74 -1 -144 -1 -156
l1 -23 469 0 469 0 21 33 c53 85 159 94 228 20 30 -31 33 -40 33 -96 0 -67
-22 -116 -60 -137 -26 -14 -102 -15 -160 -1 -28 7 -240 11 -570 11 -416 1
-530 3 -549 14 l-24 13 2 225 2 225 -25 17 c-57 37 -78 142 -39 194 51 69 130
91 196 52z m1264 -612 c-2 -13 -4 -5 -4 17 -1 22 1 32 4 23 2 -10 2 -28 0 -40z
m0 -320 c-2 -13 -4 -5 -4 17 -1 22 1 32 4 23 2 -10 2 -28 0 -40z"/>
<path d="M1216 4084 c-3 -9 -6 -130 -6 -270 l0 -255 63 3 62 3 0 262 c0 144
-3 264 -6 268 -4 3 -19 0 -33 -7 -21 -9 -32 -9 -47 0 -24 15 -26 15 -33 -4z"/>
<path d="M3100 3830 l0 -271 60 3 61 3 0 264 c0 145 -2 265 -4 268 -3 2 -16
-2 -31 -8 -20 -9 -32 -9 -51 -1 -14 7 -28 12 -30 12 -3 0 -5 -122 -5 -270z"/>
<path d="M946 3974 c-3 -9 -6 -73 -6 -144 0 -71 3 -135 6 -144 4 -11 19 -16
49 -16 77 0 75 -4 75 150 0 166 -2 172 -40 158 -20 -6 -35 -6 -49 1 -26 14
-28 14 -35 -5z"/>
<path d="M3370 3830 l0 -160 60 0 60 0 0 160 c0 101 -4 160 -10 160 -6 0 -19
-6 -30 -12 -16 -10 -24 -10 -40 0 -11 6 -24 12 -30 12 -6 0 -10 -59 -10 -160z"/>
<path d="M5220 4256 c-6 -6 -10 -52 -10 -104 0 -83 -3 -100 -27 -143 -21 -40
-37 -55 -86 -79 -33 -17 -66 -30 -74 -30 -7 0 -21 -4 -31 -10 -51 -29 -178
-70 -217 -70 -42 0 -51 5 -118 68 l-73 67 -62 -3 c-34 -2 -62 -8 -62 -13 0 -5
-6 -9 -12 -9 -32 -1 -228 -193 -228 -223 0 -4 34 -43 75 -87 48 -52 78 -94 86
-119 13 -45 12 -52 -56 -191 -22 -47 -46 -103 -53 -125 -15 -51 -68 -124 -99
-136 -39 -15 -192 -22 -207 -10 -9 8 -17 7 -29 -2 -37 -27 -45 -292 -12 -373
l13 -31 113 -5 c157 -7 187 -26 233 -153 11 -27 36 -85 57 -127 69 -140 64
-167 -52 -286 l-71 -73 27 -42 c41 -63 184 -198 242 -229 l50 -28 88 75 c48
41 98 78 112 81 35 9 91 0 143 -24 69 -32 119 -52 193 -77 116 -40 137 -72
137 -211 0 -126 2 -127 197 -133 156 -4 220 2 249 24 16 11 20 31 24 125 l5
112 35 32 c23 21 71 44 144 70 60 21 140 54 178 73 100 51 108 71 107 260 0
81 -4 157 -8 168 -8 19 -8 19 -15 -2 -4 -13 -12 -23 -17 -23 -6 0 -7 -5 -3
-12 5 -7 2 -9 -8 -5 -10 3 -30 -8 -53 -29 -21 -19 -42 -34 -47 -34 -5 0 -7 -4
-4 -9 3 -5 -8 -14 -24 -21 -17 -7 -28 -15 -26 -18 6 -5 -34 -30 -109 -67 -202
-98 -460 -113 -685 -38 -82 27 -241 113 -234 125 3 4 1 8 -5 8 -24 0 -174 152
-225 228 -178 266 -200 575 -60 852 88 175 276 342 472 419 147 58 397 79 542
46 173 -40 345 -131 444 -234 17 -17 34 -31 39 -31 10 0 2 389 -8 398 -3 3
-19 5 -36 4 -17 0 -45 7 -62 17 -18 10 -81 35 -141 56 -166 59 -196 98 -196
256 0 59 -4 90 -12 95 -26 16 -433 25 -448 10z"/>
</g>
</svg>
