<?xml version="1.0" standalone="no"?>
<!DOCTYPE svg PUBLIC "-//W3C//DTD SVG 20010904//EN"
 "http://www.w3.org/TR/2001/REC-SVG-20010904/DTD/svg10.dtd">
<svg version="1.0" xmlns="http://www.w3.org/2000/svg"
 width="300.000000pt" height="375.000000pt" viewBox="0 0 300.000000 375.000000"
 preserveAspectRatio="xMidYMid meet">
<metadata>
Created by potrace 1.10, written by Peter Selinger 2001-2011
</metadata>
<g transform="translate(0.000000,375.000000) scale(0.100000,-0.100000)"
fill="#000000" stroke="none">
<path d="M226 2458 c-14 -19 -16 -71 -16 -359 0 -313 1 -337 18 -352 17 -16
121 -17 1290 -17 l1271 0 15 22 c24 34 24 672 0 706 l-15 22 -1274 0 -1274 0
-15 -22z m2562 -355 l2 -343 -1275 0 -1275 0 0 345 0 345 1273 -2 1272 -3 3
-342z"/>
<path d="M260 2105 l0 -325 1255 0 1255 0 0 325 0 325 -1255 0 -1255 0 0 -325z
m2465 283 c5 -5 7 -51 6 -116 l-1 -63 -32 37 c-70 79 -192 83 -258 8 l-32 -37
-28 32 c-39 42 -65 50 -172 56 -132 6 -128 10 -128 -149 l0 -133 -31 -7 c-62
-12 -73 -8 -85 29 -6 20 -7 38 -3 41 5 3 9 47 9 98 0 69 -4 97 -14 105 -10 9
-54 11 -143 8 -124 -3 -131 -5 -166 -31 l-37 -28 0 -96 c0 -75 4 -99 17 -114
23 -25 2 -49 -22 -24 -9 9 -27 16 -41 16 l-24 0 0 125 c0 118 -1 125 -22 139
-33 20 -86 14 -104 -13 -14 -20 -18 -21 -33 -8 -34 31 -162 50 -177 26 -4 -8
-9 -8 -17 0 -15 15 -50 14 -65 -1 -8 -8 -12 -67 -12 -200 l0 -188 25 -16 c20
-13 28 -14 40 -4 11 9 19 9 28 2 14 -12 116 -2 158 16 15 6 34 21 42 32 l15
22 48 -36 c37 -29 56 -36 91 -36 46 0 106 21 134 46 16 15 19 13 33 -14 19
-36 28 -40 80 -32 23 3 93 3 156 0 63 -3 120 -2 126 2 6 5 19 6 28 2 9 -3 23
-1 30 6 11 8 20 9 35 0 11 -6 33 -7 47 -4 25 6 47 10 85 13 8 0 34 17 56 35
l40 35 22 -29 c31 -43 77 -63 141 -63 62 0 108 19 139 59 l21 27 0 -77 0 -76
-1220 0 -1220 0 0 179 0 179 37 -19 c46 -23 71 -24 95 -2 17 15 18 12 18 -93
0 -67 -4 -114 -11 -121 -16 -16 -1 -52 25 -59 68 -17 124 15 98 56 -14 23 -17
240 -4 240 5 0 17 -9 28 -21 15 -16 26 -20 54 -15 l35 6 -3 -38 c-3 -27 2 -45
19 -66 12 -16 23 -39 24 -52 1 -36 53 -84 90 -84 19 0 39 -8 50 -20 13 -14 31
-20 61 -20 36 0 47 5 61 26 9 14 29 39 45 54 37 37 38 93 2 158 -35 65 -58 82
-109 82 -109 0 -134 -136 -31 -170 44 -14 101 7 118 44 14 32 31 35 19 4 -5
-13 -6 -37 -4 -55 4 -27 1 -34 -26 -47 -18 -10 -31 -24 -31 -36 0 -22 -31 -34
-66 -26 -15 4 -24 14 -24 26 0 23 -36 36 -55 20 -12 -10 -20 -9 -40 4 -32 21
-41 42 -26 60 15 18 3 46 -20 46 -11 0 -21 9 -25 24 -8 34 4 66 26 66 22 0 34
28 20 45 -23 28 37 88 65 65 19 -16 55 -3 55 21 0 28 79 28 87 0 2 -10 16 -24
29 -30 19 -8 24 -18 24 -50 0 -44 8 -71 21 -71 5 0 9 26 9 58 -1 52 -4 61 -41
102 -37 40 -46 45 -84 45 -29 0 -50 -7 -65 -20 -12 -11 -31 -19 -41 -17 -10 2
-32 -4 -48 -14 -29 -17 -33 -16 -81 11 -37 22 -86 19 -104 -6 -15 -21 -36 -18
-36 5 0 7 -9 21 -20 31 -19 17 -21 17 -40 0 -11 -10 -20 -25 -20 -33 0 -12 -4
-12 -25 2 -30 20 -62 20 -99 1 -15 -8 -30 -15 -32 -15 -2 0 -4 27 -4 60 l0 59
58 3 c70 4 2374 0 2377 -4z m-2225 -123 c0 -35 0 -35 45 -35 38 0 45 3 45 20
0 15 7 20 25 20 14 0 25 -5 25 -11 0 -6 7 -8 15 -5 9 3 18 -1 21 -9 4 -8 12
-15 20 -15 8 0 14 -4 14 -10 0 -5 -7 -10 -15 -10 -8 0 -15 -6 -15 -14 0 -7
-14 -16 -31 -20 -50 -10 -59 -7 -59 14 0 17 -7 20 -45 20 l-45 0 0 -145 c0
-120 3 -145 14 -145 8 0 18 -4 21 -10 4 -6 -12 -10 -39 -10 -25 0 -46 5 -46
10 0 6 7 10 15 10 13 0 15 23 15 145 l0 145 -35 0 c-28 0 -35 -4 -35 -20 0
-21 -9 -24 -59 -14 -17 4 -31 13 -31 20 0 8 -7 14 -15 14 -8 0 -15 5 -15 10 0
6 6 10 14 10 8 0 16 7 20 15 3 8 12 12 21 9 8 -3 15 -1 15 5 0 6 11 11 25 11
18 0 25 -5 25 -20 0 -16 7 -20 38 -20 38 0 38 0 34 35 -3 21 0 35 7 35 6 0 11
-16 11 -35z m1640 -126 c-3 -174 -3 -181 1 -198 2 -8 -3 -16 -11 -18 -13 -3
-15 21 -13 174 1 98 2 180 3 181 0 2 5 2 12 0 8 -3 10 -43 8 -139z m132 126
c26 -3 58 -15 72 -26 38 -30 60 -98 53 -166 -10 -94 -56 -138 -155 -147 -57
-5 -63 -4 -60 12 3 14 12 16 55 14 68 -5 106 16 127 68 31 79 15 166 -40 209
-24 19 -38 22 -82 19 -29 -3 -55 -1 -58 4 -9 14 7 29 24 24 10 -2 38 -7 64
-11z m-1102 -16 c-6 -18 -6 -300 0 -318 3 -8 -2 -16 -10 -18 -13 -3 -15 22
-15 177 0 155 2 180 15 177 8 -2 13 -10 10 -18z m127 11 c48 0 93 -45 93 -93
0 -19 -7 -40 -15 -47 -13 -11 -11 -16 11 -43 55 -65 0 -155 -96 -159 -28 -1
-58 -2 -67 -2 -10 -1 -18 6 -18 14 0 12 11 14 57 12 81 -5 127 24 128 81 0 30
-31 67 -56 67 -13 0 -11 6 10 25 63 59 8 140 -84 122 -30 -7 -46 5 -35 24 4 6
14 8 22 5 8 -3 30 -6 50 -6z m483 -170 c0 -137 -3 -180 -12 -180 -10 0 -13 43
-13 180 0 137 3 180 13 180 9 0 12 -43 12 -180z m43 -3 c2 -143 -1 -177 -11
-175 -11 2 -14 40 -13 176 0 94 0 175 1 178 0 3 5 4 11 2 6 -2 11 -67 12 -181z
m111 94 c1 -76 -6 -103 -21 -87 -3 3 -5 37 -4 76 1 44 -2 70 -8 70 -7 0 -11
-52 -11 -150 l0 -150 85 0 c56 0 85 4 85 11 0 8 -24 10 -75 7 l-75 -3 -1 32
c-1 18 -2 39 -3 46 -1 6 6 12 14 12 11 0 14 -9 12 -35 l-3 -35 60 1 c33 1 65
5 71 9 18 11 36 -11 22 -28 -9 -10 -9 -16 0 -25 14 -14 20 -13 -109 -15 l-102
-2 -3 170 c-2 94 -2 173 -1 176 2 4 17 6 34 5 l31 -1 2 -84z m706 74 c33 -17
76 -93 61 -108 -14 -14 -33 3 -28 25 13 48 -76 92 -148 74 -58 -15 -84 -78
-48 -118 9 -10 48 -28 87 -39 85 -25 96 -33 96 -68 -1 -27 -31 -71 -49 -71
-19 0 -12 32 8 37 26 7 35 33 18 50 -7 7 -44 22 -82 32 -47 13 -77 28 -92 46
-40 46 -25 112 32 143 29 16 111 14 145 -3z m-1178 -109 c-3 -88 -1 -122 11
-145 12 -25 13 -32 2 -41 -22 -18 -27 4 -34 149 -8 143 -7 151 12 151 9 0 11
-30 9 -114z m40 2 c-3 -132 7 -163 53 -163 15 0 30 -5 32 -12 7 -20 -15 -24
-51 -9 -45 19 -56 57 -56 194 0 75 3 102 13 102 9 0 11 -27 9 -112z m206 40
c3 -138 -7 -196 -38 -231 -26 -30 -34 -32 -99 -34 -70 -2 -94 8 -72 30 8 8 14
8 23 -1 7 -7 31 -12 55 -12 33 0 50 7 75 29 l33 29 0 131 c0 85 4 131 10 131
7 0 12 -30 13 -72z m542 26 c0 -12 -8 -13 -36 -8 l-36 7 3 -124 c2 -113 1
-124 -16 -128 -14 -2 -17 1 -12 20 4 13 7 74 7 136 l0 112 38 3 c45 4 52 1 52
-18z m101 -67 c15 -55 2 -113 -33 -153 -29 -33 -48 -37 -48 -9 0 7 10 15 22
17 64 9 55 198 -9 198 -14 0 -18 22 -6 33 12 13 63 -47 74 -86z m252 80 c39
-17 67 -61 48 -80 -9 -9 -14 -9 -21 3 -5 8 -6 18 -3 22 11 18 -20 39 -49 33
-24 -6 -28 -3 -28 14 0 25 9 26 53 8z m-938 -87 c0 -58 -4 -90 -11 -90 -16 0
-24 11 -17 22 8 14 7 113 -1 127 -9 14 1 31 17 31 8 0 12 -27 12 -90z m-333
63 c39 -35 14 -84 -50 -98 -29 -6 -33 -5 -30 12 2 13 12 18 38 18 32 0 35 2
35 30 0 30 -1 30 -58 33 l-59 3 4 -43 c2 -33 0 -43 -12 -43 -8 0 -15 8 -14 18
0 9 1 33 2 52 l2 35 62 0 c43 0 67 -5 80 -17z m1180 -40 c3 -13 27 -24 75 -36
86 -22 118 -51 118 -107 0 -42 -22 -73 -69 -97 -38 -20 -118 -12 -154 14 -32
23 -66 87 -58 109 9 23 26 7 26 -25 0 -58 83 -103 160 -86 33 7 80 57 80 85 0
36 -42 70 -113 89 -67 18 -111 46 -101 62 9 15 31 10 36 -8z m-229 -4 c12 -7
17 -22 17 -55 0 -39 -5 -50 -37 -80 -20 -19 -38 -32 -40 -30 -3 2 -5 42 -6 89
-2 84 -2 85 23 85 14 0 33 -4 43 -9z m-1354 -43 c16 -20 3 -46 -24 -46 -13 0
-26 7 -29 16 -7 19 10 44 29 44 7 0 18 -6 24 -14z m1801 -13 c-1 -24 -2 -26
-11 -10 -5 9 -7 22 -4 27 10 17 15 11 15 -17z m-1742 -2 c11 -7 11 -9 -1 -14
-9 -3 -18 1 -21 9 -6 16 2 18 22 5z m336 -23 c17 -7 29 -24 36 -46 10 -39 6
-52 -16 -52 -16 0 -19 21 -4 36 21 21 -15 47 -74 52 l-56 4 0 -47 0 -47 47 4
c40 2 48 0 51 -16 3 -15 0 -18 -19 -13 -13 4 -41 7 -61 7 l-38 0 0 65 0 65 55
0 c30 0 66 -5 79 -12z m1175 -45 c-3 -34 1 -42 24 -45 25 -3 30 -31 7 -35 -15
-3 -70 65 -70 86 0 6 9 11 21 11 13 0 20 -6 18 -17z m71 -4 c26 -10 29 -14 17
-21 -16 -9 -57 9 -57 24 0 10 1 10 40 -3z m-1290 -3 c0 -9 -30 -14 -35 -6 -4
6 3 10 14 10 12 0 21 -2 21 -4z"/>
<path d="M874 2254 c1 -22 -51 -41 -74 -26 -25 15 -53 -14 -37 -39 15 -24 -6
-69 -33 -69 -15 0 -20 -7 -20 -25 0 -18 5 -25 20 -25 28 0 48 -45 33 -70 -10
-14 -8 -21 6 -34 12 -11 20 -13 28 -5 7 7 24 8 42 4 28 -6 36 -15 32 -37 0 -5
13 -8 29 -8 20 0 30 5 30 15 0 8 14 21 30 30 17 9 30 24 30 34 0 18 -1 18 -37
0 -79 -40 -163 13 -163 102 0 22 10 41 34 65 28 28 41 34 78 34 24 0 54 -7 66
-16 21 -14 22 -14 22 5 0 13 -12 26 -30 36 -16 9 -30 22 -30 30 0 10 -10 15
-29 15 -21 0 -28 -5 -27 -16z"/>
<path d="M370 2221 c0 -17 5 -33 10 -36 6 -4 10 8 10 29 0 20 -4 36 -10 36 -5
0 -10 -13 -10 -29z"/>
<path d="M610 2214 c0 -21 4 -33 10 -29 6 3 10 19 10 36 0 16 -4 29 -10 29 -5
0 -10 -16 -10 -36z"/>
<path d="M340 2220 c0 -11 5 -20 10 -20 6 0 10 9 10 20 0 11 -4 20 -10 20 -5
0 -10 -9 -10 -20z"/>
<path d="M640 2220 c0 -11 5 -20 10 -20 6 0 10 9 10 20 0 11 -4 20 -10 20 -5
0 -10 -9 -10 -20z"/>
</g>
</svg>
